<mxfile host="Electron" modified="2024-04-15T00:21:53.767Z" agent="Mozilla/5.0 (X11; Linux x86_64) AppleWebKit/537.36 (KHTML, like Gecko) draw.io/24.1.0 Chrome/120.0.6099.109 Electron/28.1.0 Safari/537.36" etag="-2VJJO7OGnC3ssZWR1hy" version="24.1.0" type="device">
  <diagram name="第 1 页" id="NE1EQP_UVrW5uu0ULx0J">
    <mxGraphModel dx="518" dy="232" grid="1" gridSize="10" guides="1" tooltips="1" connect="1" arrows="1" fold="1" page="0" pageScale="1" pageWidth="827" pageHeight="1169" math="0" shadow="0">
      <root>
        <mxCell id="0" />
        <mxCell id="1" parent="0" />
        <mxCell id="CQtjKDQ8aNk-oyiqNlOY-21" value="a" style="text;strokeColor=none;align=center;fillColor=none;html=1;verticalAlign=middle;whiteSpace=wrap;rounded=0;" vertex="1" parent="1">
          <mxGeometry x="230" y="555" width="10" height="10" as="geometry" />
        </mxCell>
        <mxCell id="CQtjKDQ8aNk-oyiqNlOY-22" value="b" style="text;strokeColor=none;align=center;fillColor=none;html=1;verticalAlign=middle;whiteSpace=wrap;rounded=0;" vertex="1" parent="1">
          <mxGeometry x="230" y="595" width="10" height="10" as="geometry" />
        </mxCell>
        <mxCell id="CQtjKDQ8aNk-oyiqNlOY-24" style="edgeStyle=orthogonalEdgeStyle;rounded=0;orthogonalLoop=1;jettySize=auto;html=1;endArrow=none;endFill=0;" edge="1" parent="1" source="CQtjKDQ8aNk-oyiqNlOY-23">
          <mxGeometry relative="1" as="geometry">
            <mxPoint x="340" y="520" as="targetPoint" />
          </mxGeometry>
        </mxCell>
        <mxCell id="CQtjKDQ8aNk-oyiqNlOY-23" value="c" style="text;strokeColor=none;align=center;fillColor=none;html=1;verticalAlign=middle;whiteSpace=wrap;rounded=0;" vertex="1" parent="1">
          <mxGeometry x="230" y="515" width="10" height="10" as="geometry" />
        </mxCell>
        <mxCell id="CQtjKDQ8aNk-oyiqNlOY-26" value="" style="group" vertex="1" connectable="0" parent="1">
          <mxGeometry x="240" y="540" width="100" height="80" as="geometry" />
        </mxCell>
        <mxCell id="CQtjKDQ8aNk-oyiqNlOY-27" value="Half&lt;br&gt;Adder" style="rounded=0;whiteSpace=wrap;html=1;" vertex="1" parent="CQtjKDQ8aNk-oyiqNlOY-26">
          <mxGeometry x="20" width="60" height="80" as="geometry" />
        </mxCell>
        <mxCell id="CQtjKDQ8aNk-oyiqNlOY-28" value="" style="endArrow=none;html=1;rounded=0;entryX=0;entryY=0.25;entryDx=0;entryDy=0;" edge="1" parent="CQtjKDQ8aNk-oyiqNlOY-26" target="CQtjKDQ8aNk-oyiqNlOY-27">
          <mxGeometry width="50" height="50" relative="1" as="geometry">
            <mxPoint y="20" as="sourcePoint" />
            <mxPoint x="10" y="-30" as="targetPoint" />
          </mxGeometry>
        </mxCell>
        <mxCell id="CQtjKDQ8aNk-oyiqNlOY-29" value="" style="endArrow=none;html=1;rounded=0;entryX=0;entryY=0.25;entryDx=0;entryDy=0;" edge="1" parent="CQtjKDQ8aNk-oyiqNlOY-26">
          <mxGeometry width="50" height="50" relative="1" as="geometry">
            <mxPoint y="60" as="sourcePoint" />
            <mxPoint x="20" y="60" as="targetPoint" />
          </mxGeometry>
        </mxCell>
        <mxCell id="CQtjKDQ8aNk-oyiqNlOY-30" value="" style="endArrow=none;html=1;rounded=0;entryX=0;entryY=0.25;entryDx=0;entryDy=0;" edge="1" parent="CQtjKDQ8aNk-oyiqNlOY-26">
          <mxGeometry width="50" height="50" relative="1" as="geometry">
            <mxPoint x="80" y="19.92999999999995" as="sourcePoint" />
            <mxPoint x="100" y="19.92999999999995" as="targetPoint" />
          </mxGeometry>
        </mxCell>
        <mxCell id="CQtjKDQ8aNk-oyiqNlOY-31" value="" style="endArrow=none;html=1;rounded=0;entryX=0;entryY=0.25;entryDx=0;entryDy=0;" edge="1" parent="CQtjKDQ8aNk-oyiqNlOY-26">
          <mxGeometry width="50" height="50" relative="1" as="geometry">
            <mxPoint x="80" y="59.92999999999995" as="sourcePoint" />
            <mxPoint x="100" y="59.92999999999995" as="targetPoint" />
          </mxGeometry>
        </mxCell>
        <mxCell id="CQtjKDQ8aNk-oyiqNlOY-32" value="0" style="text;strokeColor=none;align=center;fillColor=none;html=1;verticalAlign=middle;whiteSpace=wrap;rounded=0;fontSize=6;" vertex="1" parent="CQtjKDQ8aNk-oyiqNlOY-26">
          <mxGeometry x="20" y="15" width="10" height="10" as="geometry" />
        </mxCell>
        <mxCell id="CQtjKDQ8aNk-oyiqNlOY-33" value="1" style="text;strokeColor=none;align=center;fillColor=none;html=1;verticalAlign=middle;whiteSpace=wrap;rounded=0;fontSize=6;" vertex="1" parent="CQtjKDQ8aNk-oyiqNlOY-26">
          <mxGeometry x="20" y="55" width="10" height="10" as="geometry" />
        </mxCell>
        <mxCell id="CQtjKDQ8aNk-oyiqNlOY-34" value="S" style="text;strokeColor=none;align=center;fillColor=none;html=1;verticalAlign=middle;whiteSpace=wrap;rounded=0;fontSize=6;" vertex="1" parent="CQtjKDQ8aNk-oyiqNlOY-26">
          <mxGeometry x="70" y="15" width="10" height="10" as="geometry" />
        </mxCell>
        <mxCell id="CQtjKDQ8aNk-oyiqNlOY-35" value="C-out" style="text;strokeColor=none;align=center;fillColor=none;html=1;verticalAlign=middle;whiteSpace=wrap;rounded=0;fontSize=6;" vertex="1" parent="CQtjKDQ8aNk-oyiqNlOY-26">
          <mxGeometry x="60" y="55" width="20" height="10" as="geometry" />
        </mxCell>
        <mxCell id="CQtjKDQ8aNk-oyiqNlOY-36" value="" style="group" vertex="1" connectable="0" parent="1">
          <mxGeometry x="340" y="500" width="100" height="80" as="geometry" />
        </mxCell>
        <mxCell id="CQtjKDQ8aNk-oyiqNlOY-37" value="Half&lt;br&gt;Adder" style="rounded=0;whiteSpace=wrap;html=1;" vertex="1" parent="CQtjKDQ8aNk-oyiqNlOY-36">
          <mxGeometry x="20" width="60" height="80" as="geometry" />
        </mxCell>
        <mxCell id="CQtjKDQ8aNk-oyiqNlOY-38" value="" style="endArrow=none;html=1;rounded=0;entryX=0;entryY=0.25;entryDx=0;entryDy=0;" edge="1" parent="CQtjKDQ8aNk-oyiqNlOY-36" target="CQtjKDQ8aNk-oyiqNlOY-37">
          <mxGeometry width="50" height="50" relative="1" as="geometry">
            <mxPoint y="20" as="sourcePoint" />
            <mxPoint x="10" y="-30" as="targetPoint" />
          </mxGeometry>
        </mxCell>
        <mxCell id="CQtjKDQ8aNk-oyiqNlOY-39" value="" style="endArrow=none;html=1;rounded=0;entryX=0;entryY=0.25;entryDx=0;entryDy=0;" edge="1" parent="CQtjKDQ8aNk-oyiqNlOY-36">
          <mxGeometry width="50" height="50" relative="1" as="geometry">
            <mxPoint y="60" as="sourcePoint" />
            <mxPoint x="20" y="60" as="targetPoint" />
          </mxGeometry>
        </mxCell>
        <mxCell id="CQtjKDQ8aNk-oyiqNlOY-40" value="" style="endArrow=none;html=1;rounded=0;entryX=0;entryY=0.25;entryDx=0;entryDy=0;" edge="1" parent="CQtjKDQ8aNk-oyiqNlOY-36">
          <mxGeometry width="50" height="50" relative="1" as="geometry">
            <mxPoint x="80" y="19.92999999999995" as="sourcePoint" />
            <mxPoint x="100" y="19.92999999999995" as="targetPoint" />
          </mxGeometry>
        </mxCell>
        <mxCell id="CQtjKDQ8aNk-oyiqNlOY-41" value="" style="endArrow=none;html=1;rounded=0;entryX=0;entryY=0.25;entryDx=0;entryDy=0;" edge="1" parent="CQtjKDQ8aNk-oyiqNlOY-36">
          <mxGeometry width="50" height="50" relative="1" as="geometry">
            <mxPoint x="80" y="59.92999999999995" as="sourcePoint" />
            <mxPoint x="100" y="59.92999999999995" as="targetPoint" />
          </mxGeometry>
        </mxCell>
        <mxCell id="CQtjKDQ8aNk-oyiqNlOY-42" value="0" style="text;strokeColor=none;align=center;fillColor=none;html=1;verticalAlign=middle;whiteSpace=wrap;rounded=0;fontSize=6;" vertex="1" parent="CQtjKDQ8aNk-oyiqNlOY-36">
          <mxGeometry x="20" y="15" width="10" height="10" as="geometry" />
        </mxCell>
        <mxCell id="CQtjKDQ8aNk-oyiqNlOY-43" value="1" style="text;strokeColor=none;align=center;fillColor=none;html=1;verticalAlign=middle;whiteSpace=wrap;rounded=0;fontSize=6;" vertex="1" parent="CQtjKDQ8aNk-oyiqNlOY-36">
          <mxGeometry x="20" y="55" width="10" height="10" as="geometry" />
        </mxCell>
        <mxCell id="CQtjKDQ8aNk-oyiqNlOY-44" value="S" style="text;strokeColor=none;align=center;fillColor=none;html=1;verticalAlign=middle;whiteSpace=wrap;rounded=0;fontSize=6;" vertex="1" parent="CQtjKDQ8aNk-oyiqNlOY-36">
          <mxGeometry x="70" y="15" width="10" height="10" as="geometry" />
        </mxCell>
        <mxCell id="CQtjKDQ8aNk-oyiqNlOY-45" value="C-out" style="text;strokeColor=none;align=center;fillColor=none;html=1;verticalAlign=middle;whiteSpace=wrap;rounded=0;fontSize=6;" vertex="1" parent="CQtjKDQ8aNk-oyiqNlOY-36">
          <mxGeometry x="60" y="55" width="20" height="10" as="geometry" />
        </mxCell>
        <mxCell id="CQtjKDQ8aNk-oyiqNlOY-48" style="edgeStyle=orthogonalEdgeStyle;rounded=0;orthogonalLoop=1;jettySize=auto;html=1;exitX=0;exitY=0.75;exitDx=0;exitDy=0;exitPerimeter=0;endArrow=none;endFill=0;" edge="1" parent="1" source="CQtjKDQ8aNk-oyiqNlOY-47">
          <mxGeometry relative="1" as="geometry">
            <mxPoint x="340" y="599.9180327868853" as="targetPoint" />
          </mxGeometry>
        </mxCell>
        <mxCell id="CQtjKDQ8aNk-oyiqNlOY-50" style="edgeStyle=orthogonalEdgeStyle;rounded=0;orthogonalLoop=1;jettySize=auto;html=1;exitX=0;exitY=0.25;exitDx=0;exitDy=0;exitPerimeter=0;endArrow=none;endFill=0;" edge="1" parent="1" source="CQtjKDQ8aNk-oyiqNlOY-47">
          <mxGeometry relative="1" as="geometry">
            <mxPoint x="440" y="560" as="targetPoint" />
            <Array as="points">
              <mxPoint x="440" y="570" />
            </Array>
          </mxGeometry>
        </mxCell>
        <mxCell id="CQtjKDQ8aNk-oyiqNlOY-47" value="OR" style="verticalLabelPosition=middle;shadow=0;dashed=0;align=center;html=1;verticalAlign=middle;shape=mxgraph.electrical.logic_gates.logic_gate;operation=or;labelPosition=center;" vertex="1" parent="1">
          <mxGeometry x="440" y="555" width="100" height="60" as="geometry" />
        </mxCell>
        <mxCell id="CQtjKDQ8aNk-oyiqNlOY-53" style="edgeStyle=orthogonalEdgeStyle;rounded=0;orthogonalLoop=1;jettySize=auto;html=1;endArrow=none;endFill=0;" edge="1" parent="1" source="CQtjKDQ8aNk-oyiqNlOY-51">
          <mxGeometry relative="1" as="geometry">
            <mxPoint x="440" y="520" as="targetPoint" />
          </mxGeometry>
        </mxCell>
        <mxCell id="CQtjKDQ8aNk-oyiqNlOY-51" value="Sum" style="text;strokeColor=none;align=center;fillColor=none;html=1;verticalAlign=middle;whiteSpace=wrap;rounded=0;" vertex="1" parent="1">
          <mxGeometry x="540" y="515" width="30" height="10" as="geometry" />
        </mxCell>
        <mxCell id="CQtjKDQ8aNk-oyiqNlOY-52" value="Carry" style="text;strokeColor=none;align=center;fillColor=none;html=1;verticalAlign=middle;whiteSpace=wrap;rounded=0;" vertex="1" parent="1">
          <mxGeometry x="540" y="580" width="35" height="10" as="geometry" />
        </mxCell>
      </root>
    </mxGraphModel>
  </diagram>
</mxfile>
